<svg width="24" height="24" viewBox="0 0 24 24" xmlns="http://www.w3.org/2000/svg" aria-hidden="true" focusable="false" font-size="m" color="special.black" class="css-12m8qvz e60jv3k0"><path d="M21.545 5.25c.528 0 .955.427.955.955v11.59a.955.955 0 01-.955.955H2.455a.955.955 0 01-.955-.955V6.205c0-.528.427-.955.955-.955h19.09zm-2.7 12H21v-2.156a3.005 3.005 0 00-2.155 2.156zM17.312 6.75H6.688A4.504 4.504 0 013 10.438v3.124a4.504 4.504 0 013.687 3.688h10.624A4.504 4.504 0 0121 13.562v-3.124a4.504 4.504 0 01-3.688-3.687zM3.001 15.095L3 17.25h2.155a3.005 3.005 0 00-2.154-2.155zM5.155 6.75L3 6.75v2.155a3.005 3.005 0 002.155-2.154zM21 6.75l-2.155.001A3.005 3.005 0 0021 8.906V6.75z"></path><path d="M12 8.25c1.711 0 3 1.718 3 3.75s-1.289 3.75-3 3.75S9 14.032 9 12s1.289-3.75 3-3.75zm0 1.5c-.774 0-1.5.968-1.5 2.25s.726 2.25 1.5 2.25 1.5-.968 1.5-2.25-.726-2.25-1.5-2.25zm-5.25 1.5a.75.75 0 01.135 1.488l-.135.012h-1.5a.75.75 0 01-.135-1.488l.135-.012h1.5zm12 0a.75.75 0 01.135 1.488l-.135.012h-1.5a.75.75 0 01-.135-1.488l.135-.012h1.5z"></path></svg>