<svg xmlns="http://www.w3.org/2000/svg" width="24" height="24" viewBox="0 0 24 24" aria-hidden="true" focusable="false" ml="s" color="green.m" class="css-1amfpfr ez65q8f0"><g fill-rule="evenodd"><path d="M17.25.75a.75.75 0 01.75.75V3h3.75a.75.75 0 01.75.75v18a.75.75 0 01-.75.75H2.25a.75.75 0 01-.75-.75v-18A.75.75 0 012.25 3H6V1.5a.75.75 0 011.5 0V3h9V1.5a.75.75 0 01.75-.75zM21 9H3v12h18V9zM6 4.5H3v3h18v-3h-3v.75a.75.75 0 01-1.5 0V4.5h-9v.75a.75.75 0 01-1.5 0V4.5z"></path><path d="M8.25 16.5a.75.75 0 010 1.5h-1.5a.75.75 0 010-1.5h1.5zm9 0a.75.75 0 010 1.5h-1.5a.75.75 0 010-1.5h1.5zm-4.5 0a.75.75 0 010 1.5h-1.5a.75.75 0 010-1.5h1.5zM8.25 13a.75.75 0 010 1.5h-1.5a.75.75 0 010-1.5h1.5zm9 0a.75.75 0 010 1.5h-1.5a.75.75 0 010-1.5h1.5zm-4.5 0a.75.75 0 010 1.5h-1.5a.75.75 0 010-1.5h1.5z"></path></g></svg>