<svg xmlns="http://www.w3.org/2000/svg" width="24" height="24" viewBox="0 0 24 24" aria-hidden="true" focusable="false" font-size="m" color="special.black" class="css-12m8qvz eiseidr0"><path fill-rule="evenodd" d="M14.625 14.625c.732 0 1.384.352 1.796.897l2.386-.648c.953-.264 2.048.287 2.403 1.231a2.14 2.14 0 01-.835 2.532c-4.009 2.601-6.993 3.863-9.125 3.863-1.605 0-3.304-.138-5.05-.414l-.246-.036a.746.746 0 01-.329.076h-3a.75.75 0 01-.75-.75v-6a.75.75 0 01.75-.75l12-.001zm0 1.5l-7.875.005v4.522c1.557.231 3.07.348 4.5.348 1.807 0 4.602-1.218 8.307-3.621a.639.639 0 00.249-.747.516.516 0 00-.474-.327l-2.459.651a2.25 2.25 0 01-2.248 2.169h-4.5a.75.75 0 110-1.5h4.495a.752.752 0 00.755-.75.752.752 0 00-.75-.75zm-9.377 0H3.375v4.5h1.873v-4.5z"></path><path fill-rule="evenodd" d="M12 1.5a1.5 1.5 0 011.495 1.626 8.999 8.999 0 017.499 8.537L21 12h.75a.75.75 0 01.135 1.488l-.135.012H2.25a.75.75 0 01-.135-1.488L2.25 12H3c0-4.462 3.247-8.165 7.506-8.877L10.5 3A1.5 1.5 0 0112 1.5zm0 3a7.5 7.5 0 00-7.493 7.175L4.499 12H19.5a7.5 7.5 0 00-7.175-7.493L12 4.5z"></path></svg>