<svg xmlns="http://www.w3.org/2000/svg" width="24" height="24" viewBox="0 0 24 24" aria-hidden="true" focusable="false" display="block" class="css-z6fju0 e1nudred0" style="transform: scale(1.75);"><g fill-rule="evenodd"><path d="M12 1.5c5.799 0 10.5 4.701 10.5 10.5S17.799 22.5 12 22.5 1.5 17.799 1.5 12 6.201 1.5 12 1.5zM12 3a9 9 0 100 18 9 9 0 000-18z"></path><path d="M10.224 18.664c.725 0 1.333-.187 1.824-.56.49-.373.837-.853 1.04-1.44l3.52-10.048h-2.016l-2.016 6.528-2.272-6.528H8.096L11.408 15c-.107.352-.208.645-.304.88a2.733 2.733 0 01-.288.552.822.822 0 01-.32.28.917.917 0 01-.384.08c-.117 0-.261-.013-.432-.04a4.136 4.136 0 01-.528-.12v1.856a3.326 3.326 0 001.072.176z"></path></g></svg>