<svg xmlns="http://www.w3.org/2000/svg" width="24" height="24" viewBox="0 0 24 24" aria-hidden="true" focusable="false" class="Dr89y _2ULXi css-p3qwn0 e1g1xutg0"><path fill-rule="evenodd" d="M12 1.5c5.799 0 10.5 4.701 10.5 10.5S17.799 22.5 12 22.5 1.5 17.799 1.5 12 6.201 1.5 12 1.5zm4.179 3.75H7.884a.653.653 0 00-.655.651v9.113c0 .36.293.651.655.651h.567l-1.004 1.497-.59.868a.432.432 0 00.32.72.437.437 0 00.401-.242l.459-.673h7.99l.458.673a.438.438 0 00.57.075.432.432 0 00.15-.553l-.59-.868-1.004-1.497h.568a.653.653 0 00.655-.65V5.9a.653.653 0 00-.655-.651zm-1.528 10.415a.432.432 0 00.065.239l.72 1.063h-6.81l.72-1.063a.432.432 0 00.066-.239h5.239zm.437-2.387c.361 0 .654.292.654.651 0 .36-.293.651-.654.651a.653.653 0 01-.655-.65c0-.36.293-.652.655-.652zm-6.113 0c.362 0 .655.292.655.651 0 .36-.293.651-.655.651a.653.653 0 01-.655-.65c0-.36.294-.652.655-.652zM15.5 8.062v3.5h-7v-3.5h7zm-2.595-1.944c.24 0 .436.194.436.434s-.195.434-.436.434h-1.747a.435.435 0 01-.436-.434c0-.24.195-.434.436-.434h1.747z"></path></svg>